<svg width="160" height="182" viewBox="0 0 160 182" fill="none" xmlns="http://www.w3.org/2000/svg">
<g clip-path="url(#clip0_41_42)">
<path d="M65.722 157.763C68.1627 157.763 70.1559 159.742 70.1559 162.183C70.1559 164.624 68.1763 166.603 65.722 166.603H10.3051C7.47119 166.603 4.89492 165.451 3.02373 163.58C1.15254 161.722 0 159.159 0 156.312V10.3051C0 7.45763 1.15254 4.89492 3.02373 3.02373C4.89492 1.15254 7.45763 0 10.3051 0H136.814C139.647 0 142.224 1.1661 144.095 3.02373C145.966 4.89492 147.119 7.45763 147.119 10.3051V83.4576C147.119 85.8983 145.139 87.878 142.698 87.878C140.258 87.878 138.278 85.8983 138.278 83.4576V10.3051C138.278 9.91186 138.115 9.54576 137.844 9.28814C137.573 9.01695 137.207 8.85424 136.827 8.85424H10.3051C9.91186 8.85424 9.54576 9.01695 9.27458 9.27458C9.01695 9.55932 8.85424 9.91186 8.85424 10.3051V156.312C8.85424 156.705 9.01695 157.071 9.28813 157.329C9.55932 157.6 9.92542 157.763 10.3186 157.763H65.722ZM46.0203 78.5356C45.1797 77.0847 45.7898 72.9356 47.5932 71.4712C52.7458 68.461 59.8508 69.3966 64.8136 65.9254C65.0983 65.4915 65.4102 64.8678 65.722 64.1763C66.1695 63.1458 66.5898 62.0203 66.8475 61.2475C65.7491 59.9458 64.8 58.4814 63.9051 57.0441L60.922 52.2983C59.8373 50.6712 59.2678 49.1797 59.2271 47.9593C59.2136 47.3898 59.3085 46.861 59.5254 46.4C59.7424 45.9119 60.0814 45.5186 60.5559 45.2068C60.7729 45.0576 61.0169 44.9356 61.2746 44.8407C61.0712 42.2644 61.0034 39.0237 61.139 36.2983C61.2068 35.661 61.3288 35.0102 61.5051 34.3593C62.2644 31.6339 64.1763 29.4373 66.5491 27.9322C67.8508 27.1051 69.2881 26.4678 70.7797 26.0475C71.7288 25.7763 69.9661 22.7525 70.9559 22.6441C75.7017 22.1559 83.3627 26.4814 86.6712 30.061C88.3254 31.8508 89.3695 34.2373 89.6 37.3831L89.4102 45.1254C90.2373 45.383 90.7661 45.8983 90.983 46.7525C91.2271 47.7017 90.9695 49.017 90.1559 50.8339C90.1424 50.861 90.1288 50.9017 90.1017 50.9288L86.6983 56.5288C85.4508 58.5898 84.1763 60.6508 82.522 62.278C82.6712 62.4949 82.8339 62.7119 82.983 62.9288C83.661 63.9186 84.339 64.9085 85.2068 65.7898C85.2339 65.8169 85.261 65.8576 85.2746 65.8848C89.1932 68.6508 98.7254 69.3288 102.386 71.3627L102.536 71.4441C104.42 72.8949 105.003 77.0441 104.136 78.4949H46.0203V78.5356ZM43.0373 129.302C40.5966 129.302 38.6034 127.295 38.6034 124.814C38.6034 122.332 40.583 120.325 43.0373 120.325H73.1525C75.5932 120.325 77.5864 122.332 77.5864 124.814C77.5864 127.295 75.6068 129.302 73.1525 129.302H43.0373ZM43.0373 101.247C40.5966 101.247 38.6169 99.2678 38.6169 96.8136C38.6169 94.3729 40.5966 92.3932 43.0373 92.3932H102.766C105.207 92.3932 107.186 94.3729 107.186 96.8136C107.186 99.2542 105.207 101.247 102.766 101.247H43.0373Z" fill="white"/>
<path d="M120.678 162.712V149.153H107.119V141.017H120.678V127.458H128.814V141.017H142.373V149.153H128.814V162.712H120.678Z" fill="white"/>
<path fill-rule="evenodd" clip-rule="evenodd" d="M160 145.763C160 165.608 143.913 181.695 124.068 181.695C104.223 181.695 88.1356 165.608 88.1356 145.763C88.1356 125.918 104.223 109.831 124.068 109.831C143.913 109.831 160 125.918 160 145.763ZM151.864 145.763C151.864 161.114 139.419 173.559 124.068 173.559C108.716 173.559 96.2712 161.114 96.2712 145.763C96.2712 130.411 108.716 117.966 124.068 117.966C139.419 117.966 151.864 130.411 151.864 145.763Z" fill="white"/>
</g>
<defs>
<clipPath id="clip0_41_42">
<rect width="160" height="181.695" fill="white"/>
</clipPath>
</defs>
</svg>
