<svg width="161" height="182" viewBox="0 0 161 182" fill="none" xmlns="http://www.w3.org/2000/svg">
<g clip-path="url(#clip0_47_127)">
<path d="M66.222 157.763C68.6627 157.763 70.6559 159.742 70.6559 162.183C70.6559 164.624 68.6763 166.603 66.222 166.603H10.8051C7.97119 166.603 5.39492 165.451 3.52373 163.58C1.65254 161.722 0.5 159.159 0.5 156.312V10.3051C0.5 7.45763 1.65254 4.89492 3.52373 3.02373C5.39492 1.15254 7.95763 0 10.8051 0H137.314C140.147 0 142.724 1.1661 144.595 3.02373C146.466 4.89492 147.619 7.45763 147.619 10.3051V83.4576C147.619 85.8983 145.639 87.878 143.198 87.878C140.758 87.878 138.778 85.8983 138.778 83.4576V10.3051C138.778 9.91186 138.615 9.54576 138.344 9.28814C138.073 9.01695 137.707 8.85424 137.327 8.85424H10.8051C10.4119 8.85424 10.0458 9.01695 9.77458 9.27458C9.51695 9.55932 9.35424 9.91186 9.35424 10.3051V156.312C9.35424 156.705 9.51695 157.071 9.78813 157.329C10.0593 157.6 10.4254 157.763 10.8186 157.763H66.222ZM46.5203 78.5356C45.6797 77.0847 46.2898 72.9356 48.0932 71.4712C53.2458 68.461 60.3508 69.3966 65.3136 65.9254C65.5983 65.4915 65.9102 64.8678 66.222 64.1763C66.6695 63.1458 67.0898 62.0203 67.3475 61.2475C66.2491 59.9458 65.3 58.4814 64.4051 57.0441L61.422 52.2983C60.3373 50.6712 59.7678 49.1797 59.7271 47.9593C59.7136 47.3898 59.8085 46.861 60.0254 46.4C60.2424 45.9119 60.5814 45.5186 61.0559 45.2068C61.2729 45.0576 61.5169 44.9356 61.7746 44.8407C61.5712 42.2644 61.5034 39.0237 61.639 36.2983C61.7068 35.661 61.8288 35.0102 62.0051 34.3593C62.7644 31.6339 64.6763 29.4373 67.0491 27.9322C68.3508 27.1051 69.7881 26.4678 71.2797 26.0475C72.2288 25.7763 70.4661 22.7525 71.4559 22.6441C76.2017 22.1559 83.8627 26.4814 87.1712 30.061C88.8254 31.8508 89.8695 34.2373 90.1 37.3831L89.9102 45.1254C90.7373 45.383 91.2661 45.8983 91.483 46.7525C91.7271 47.7017 91.4695 49.017 90.6559 50.8339C90.6424 50.861 90.6288 50.9017 90.6017 50.9288L87.1983 56.5288C85.9508 58.5898 84.6763 60.6508 83.022 62.278C83.1712 62.4949 83.3339 62.7119 83.483 62.9288C84.161 63.9186 84.839 64.9085 85.7068 65.7898C85.7339 65.8169 85.761 65.8576 85.7746 65.8848C89.6932 68.6508 99.2254 69.3288 102.886 71.3627L103.036 71.4441C104.92 72.8949 105.503 77.0441 104.636 78.4949H46.5203V78.5356ZM43.5373 129.302C41.0966 129.302 39.1034 127.295 39.1034 124.814C39.1034 122.332 41.083 120.325 43.5373 120.325H73.6525C76.0932 120.325 78.0864 122.332 78.0864 124.814C78.0864 127.295 76.1068 129.302 73.6525 129.302H43.5373ZM43.5373 101.247C41.0966 101.247 39.1169 99.2678 39.1169 96.8136C39.1169 94.3729 41.0966 92.3932 43.5373 92.3932H103.266C105.707 92.3932 107.686 94.3729 107.686 96.8136C107.686 99.2542 105.707 101.247 103.266 101.247H43.5373Z" fill="white"/>
<path d="M145.796 111.075C144.874 110.218 143.812 109.814 142.594 109.831C141.358 109.848 140.314 110.318 139.462 111.192L132.415 118.285L152.199 136.74L159.316 129.58C160.169 128.74 160.517 127.664 160.499 126.488C160.482 125.328 160.047 124.252 159.177 123.462L145.796 111.075ZM114.91 173.482C112.299 174.289 109.689 175.113 107.097 175.936C104.486 176.777 101.876 177.617 99.2837 178.458C93.1412 180.407 89.6956 181.483 88.9647 181.685C88.2687 181.886 88.6693 179.113 90.2354 173.298L95.1247 155.095L126.133 124.538L145.9 142.909L114.91 173.482Z" fill="white"/>
</g>
<defs>
<clipPath id="clip0_47_127">
<rect width="160" height="181.695" fill="white" transform="translate(0.5)"/>
</clipPath>
</defs>
</svg>
