<svg width="130" height="130" viewBox="0 0 130 130" fill="none" xmlns="http://www.w3.org/2000/svg">
<ellipse cx="43.331" cy="26.7939" rx="16.2187" ry="15.8779" fill="#019DE6"/>
<path d="M130 66.9847C130.14 101.787 100.167 130 64.618 130C29.0686 130 -3.17308 101.625 0.250125 66.9847C0.837273 61.0432 3.79796 52.0992 3.79796 52.0992C3.79796 52.0992 6.73171 57.7775 8.35946 61.5267C9.94304 65.1742 10.4165 79.3194 11.1503 82.3664C17.5217 108.823 41.3814 121.979 70.7 118.588C73.5211 118.261 76.2566 117.74 78.8942 117.038C79.0875 115.658 79.493 112.026 78.8093 109.656C76.8837 102.983 72.1502 97.03 66.6453 92.7862C63.5783 90.4218 61.5852 89.4012 58.0291 87.8244C53.6514 85.8832 48.9585 84.8962 44.2668 83.9095C40.3444 83.0846 36.423 82.2598 32.6875 80.8778C26.5602 78.611 19.6383 75.6056 15.4551 70.458C11.7892 65.9469 9.87995 45.6489 9.87995 45.6489C9.87995 45.6489 16.7374 50.7409 21.0303 52.5954C30.2437 56.5757 37.5114 57.3011 45.6397 58.1123C50.0438 58.5519 54.7006 59.0167 60.0565 60.0381C70.933 62.1124 78.3009 65.9424 83.3708 76.4122C85.8565 81.5453 86.0639 85.0029 86.4015 90.6294L86.4118 90.8015C86.7356 96.1952 86.5089 101.889 85.3982 107.176C85.256 107.852 85.0882 108.389 84.9259 108.909C84.7126 109.593 84.5086 110.246 84.3845 111.145C84.2056 112.441 84.2682 114.247 84.3277 115.285C104.067 107.755 117.119 89.4972 117.329 67.4809C117.434 56.4347 115.77 49.5194 109.726 40.1908C108.358 38.0794 106.833 36.7037 105.338 35.3547C103.628 33.812 101.957 32.3042 100.603 29.771C99.1737 27.0965 98.9307 24.0819 98.7121 21.37C98.4984 18.7189 98.3081 16.3572 97.0553 14.8855C108.73 19.6477 110.834 22.1244 116.585 28.8963C116.826 29.1802 117.074 29.4716 117.329 29.771C127.346 41.5394 129.938 51.6659 130 66.9847Z" fill="url(#paint0_linear_2_363)"/>
<path d="M80.3945 54.5802C79.31 57.1941 78.3672 61.5267 78.3672 61.5267C78.3672 61.5267 74.4266 59.6514 72.792 57.5573C71.7171 56.1801 71.3601 55.22 70.7647 53.5878C69.6912 50.6453 69.5806 48.7689 69.751 45.6489C69.9023 42.8784 70.4438 41.3557 71.2715 38.7023C73.0297 33.0659 75.861 30.6637 78.3672 25.3053C79.6223 22.6218 80.85 21.2592 81.4082 18.3588C81.8846 15.8833 81.9403 14.373 81.4082 11.9084C80.9673 9.86653 80.4344 8.76089 79.3808 6.94657C78.4027 5.26201 77.0092 4.80063 76.3398 2.9771C75.9327 1.86789 75.833 0 75.833 0C75.833 0 83.5417 3.09393 87.4902 6.45038C90.7815 9.24823 92.6545 11.0598 94.5859 14.8855C96.479 18.6355 97.4158 21.1324 97.12 25.3053C96.8425 29.2195 95.3506 31.2167 93.5722 34.7328C91.1113 39.5981 88.4234 41.5543 85.4628 46.145C83.3788 49.3766 81.8636 51.0393 80.3945 54.5802Z" fill="url(#paint1_linear_2_363)"/>
<defs>
<linearGradient id="paint0_linear_2_363" x1="100.096" y1="14.8855" x2="79.6676" y2="130.152" gradientUnits="userSpaceOnUse">
<stop stop-color="#019DE6"/>
<stop offset="1" stop-color="#0EBCA1"/>
</linearGradient>
<linearGradient id="paint1_linear_2_363" x1="75.2614" y1="61.5267" x2="87.4208" y2="-8.5239" gradientUnits="userSpaceOnUse">
<stop stop-color="#0EA089"/>
<stop offset="1" stop-color="#8FD7CB"/>
</linearGradient>
</defs>
</svg>
