<svg width="334" height="130" viewBox="0 0 334 130" fill="none" xmlns="http://www.w3.org/2000/svg">
<path d="M59.5496 26.7939C59.5496 35.563 52.2883 42.6718 43.3309 42.6718C34.3736 42.6718 27.1123 35.563 27.1123 26.7939C27.1123 18.0248 34.3736 10.916 43.3309 10.916C52.2883 10.916 59.5496 18.0248 59.5496 26.7939Z" fill="#019DE6"/>
<path d="M130 66.9847C130.14 101.787 100.167 130 64.618 130C29.0686 130 -3.17308 101.625 0.250125 66.9847C0.837273 61.0432 3.79796 52.0992 3.79796 52.0992C3.79796 52.0992 6.73171 57.7775 8.35946 61.5267C9.94304 65.1742 10.4165 79.3194 11.1503 82.3664C17.5217 108.823 41.3814 121.979 70.7 118.588C73.5211 118.261 76.2566 117.74 78.8942 117.038C79.0875 115.658 79.493 112.026 78.8093 109.656C76.8837 102.983 72.1502 97.03 66.6453 92.7862C63.5783 90.4218 61.5852 89.4012 58.0291 87.8244C53.6514 85.8832 48.9585 84.8962 44.2668 83.9095C40.3444 83.0846 36.423 82.2598 32.6875 80.8778C26.5602 78.611 19.6383 75.6056 15.4551 70.458C11.7892 65.9469 9.87995 45.6489 9.87995 45.6489C9.87995 45.6489 16.7374 50.7409 21.0303 52.5954C30.2437 56.5757 37.5114 57.3011 45.6397 58.1123C50.0438 58.5519 54.7006 59.0167 60.0565 60.0381C70.933 62.1124 78.3009 65.9424 83.3708 76.4122C85.8565 81.5453 86.0639 85.0029 86.4015 90.6294L86.4118 90.8015C86.7356 96.1952 86.5089 101.889 85.3982 107.176C85.256 107.852 85.0882 108.389 84.9259 108.909C84.7126 109.593 84.5086 110.246 84.3845 111.145C84.2056 112.441 84.2682 114.247 84.3277 115.285C104.067 107.755 117.119 89.4972 117.329 67.4809C117.434 56.4347 115.77 49.5194 109.726 40.1908C108.358 38.0794 106.833 36.7037 105.338 35.3547C103.628 33.812 101.957 32.3042 100.603 29.771C99.1737 27.0965 98.9307 24.0819 98.7121 21.37C98.4984 18.7189 98.3081 16.3572 97.0553 14.8855C108.73 19.6477 110.834 22.1244 116.585 28.8963C116.826 29.1802 117.074 29.4716 117.329 29.771C127.346 41.5394 129.938 51.6659 130 66.9847Z" fill="url(#paint0_linear_1_40)"/>
<path d="M80.3945 54.5802C79.31 57.1941 78.3672 61.5267 78.3672 61.5267C78.3672 61.5267 74.4266 59.6514 72.792 57.5573C71.7171 56.1801 71.3601 55.22 70.7647 53.5878C69.6913 50.6453 69.5806 48.7689 69.751 45.6489C69.9023 42.8784 70.4438 41.3557 71.2715 38.7023C73.0297 33.0659 75.861 30.6637 78.3672 25.3053C79.6223 22.6218 80.85 21.2592 81.4082 18.3588C81.8846 15.8833 81.9404 14.373 81.4082 11.9084C80.9673 9.86653 80.4344 8.76089 79.3809 6.94657C78.4027 5.26201 77.0093 4.80063 76.3399 2.9771C75.9327 1.86789 75.833 0 75.833 0C75.833 0 83.5417 3.09393 87.4902 6.45038C90.7816 9.24823 92.6546 11.0598 94.5859 14.8855C96.479 18.6355 97.4159 21.1324 97.12 25.3053C96.8426 29.2195 95.3507 31.2167 93.5722 34.7328C91.1114 39.5981 88.4234 41.5543 85.4629 46.145C83.3788 49.3766 81.8636 51.0393 80.3945 54.5802Z" fill="url(#paint1_linear_1_40)"/>
<path d="M179.969 35.7031C178.927 36.599 177.76 37.2865 176.469 37.7656C175.177 38.2448 173.839 38.4844 172.453 38.4844C171.391 38.4844 170.365 38.3438 169.375 38.0625C168.396 37.7917 167.474 37.4062 166.609 36.9062C165.755 36.3958 164.974 35.7865 164.266 35.0781C163.557 34.3698 162.948 33.5885 162.438 32.7344C161.938 31.8698 161.547 30.9479 161.266 29.9688C160.995 28.9792 160.859 27.9531 160.859 26.8906C160.859 25.8281 160.995 24.8021 161.266 23.8125C161.547 22.8229 161.938 21.901 162.438 21.0469C162.948 20.1823 163.557 19.3958 164.266 18.6875C164.974 17.9792 165.755 17.375 166.609 16.875C167.474 16.3646 168.396 15.974 169.375 15.7031C170.365 15.4219 171.391 15.2812 172.453 15.2812C173.839 15.2812 175.177 15.5208 176.469 16C177.76 16.4688 178.927 17.1562 179.969 18.0625L177.594 21.9688C176.938 21.2604 176.161 20.7188 175.266 20.3438C174.37 19.9583 173.432 19.7656 172.453 19.7656C171.464 19.7656 170.536 19.9531 169.672 20.3281C168.807 20.7031 168.052 21.2135 167.406 21.8594C166.76 22.4948 166.25 23.25 165.875 24.125C165.5 24.9896 165.312 25.9115 165.312 26.8906C165.312 27.8698 165.5 28.7917 165.875 29.6562C166.25 30.5104 166.76 31.2604 167.406 31.9062C168.052 32.5521 168.807 33.0625 169.672 33.4375C170.536 33.8125 171.464 34 172.453 34C173.432 34 174.37 33.8125 175.266 33.4375C176.161 33.0521 176.938 32.5052 177.594 31.7969L179.969 35.7031Z" fill="#019DE6"/>
<path d="M186.422 38H182.125V14.6094H186.422V38Z" fill="#019DE6"/>
<path d="M193.984 38H189.688V21.2656H193.984V38ZM191.844 20.0156L190.078 17.6875L194.719 13.3594L197.281 16.625L191.844 20.0156Z" fill="#019DE6"/>
<path d="M201.516 38H197.25V21.2656H198.281L199.688 22.8906C200.375 22.2656 201.151 21.7865 202.016 21.4531C202.891 21.1094 203.802 20.9375 204.75 20.9375C205.771 20.9375 206.734 21.1354 207.641 21.5312C208.547 21.9167 209.339 22.4531 210.016 23.1406C210.693 23.8177 211.224 24.6146 211.609 25.5312C212.005 26.4375 212.203 27.4062 212.203 28.4375V38H207.938V28.4375C207.938 28 207.854 27.5885 207.688 27.2031C207.521 26.8073 207.292 26.4635 207 26.1719C206.708 25.8802 206.37 25.651 205.984 25.4844C205.599 25.3177 205.188 25.2344 204.75 25.2344C204.302 25.2344 203.88 25.3177 203.484 25.4844C203.089 25.651 202.745 25.8802 202.453 26.1719C202.161 26.4635 201.932 26.8073 201.766 27.2031C201.599 27.5885 201.516 28 201.516 28.4375V38Z" fill="#019DE6"/>
<path d="M220.281 16.7188C220.281 17.1146 220.203 17.4844 220.047 17.8281C219.901 18.1719 219.698 18.474 219.438 18.7344C219.177 18.9844 218.87 19.1875 218.516 19.3438C218.172 19.4896 217.802 19.5625 217.406 19.5625C217.01 19.5625 216.635 19.4896 216.281 19.3438C215.938 19.1875 215.635 18.9844 215.375 18.7344C215.125 18.474 214.922 18.1719 214.766 17.8281C214.62 17.4844 214.547 17.1146 214.547 16.7188C214.547 16.3333 214.62 15.9688 214.766 15.625C214.922 15.2708 215.125 14.9688 215.375 14.7188C215.635 14.4583 215.938 14.2552 216.281 14.1094C216.635 13.9531 217.01 13.875 217.406 13.875C217.802 13.875 218.172 13.9531 218.516 14.1094C218.87 14.2552 219.177 14.4583 219.438 14.7188C219.698 14.9688 219.901 15.2708 220.047 15.625C220.203 15.9688 220.281 16.3333 220.281 16.7188ZM219.547 38H215.25V21.2656H219.547V38Z" fill="#019DE6"/>
<path d="M237.438 24.5938L234.312 27.7344C234.156 27.2969 233.943 26.9062 233.672 26.5625C233.401 26.2083 233.094 25.9115 232.75 25.6719C232.417 25.4323 232.052 25.25 231.656 25.125C231.26 25 230.854 24.9375 230.438 24.9375C229.854 24.9375 229.302 25.0573 228.781 25.2969C228.271 25.5365 227.823 25.875 227.438 26.3125C227.062 26.7396 226.766 27.25 226.547 27.8438C226.328 28.4375 226.219 29.0938 226.219 29.8125C226.219 30.3958 226.328 30.9427 226.547 31.4531C226.766 31.9635 227.062 32.4115 227.438 32.7969C227.823 33.1823 228.271 33.4844 228.781 33.7031C229.302 33.9219 229.854 34.0312 230.438 34.0312C230.854 34.0312 231.255 33.974 231.641 33.8594C232.026 33.7448 232.385 33.5833 232.719 33.375C233.062 33.1562 233.365 32.8958 233.625 32.5938C233.896 32.2812 234.115 31.9375 234.281 31.5625L237.406 34.7031C237.01 35.2656 236.552 35.7708 236.031 36.2188C235.521 36.6667 234.964 37.0469 234.359 37.3594C233.766 37.6719 233.135 37.9062 232.469 38.0625C231.812 38.2292 231.135 38.3125 230.438 38.3125C229.26 38.3125 228.151 38.0938 227.109 37.6562C226.078 37.2083 225.172 36.599 224.391 35.8281C223.62 35.0573 223.01 34.1562 222.562 33.125C222.115 32.0938 221.891 30.9896 221.891 29.8125C221.891 28.5312 222.115 27.3333 222.562 26.2188C223.01 25.1042 223.62 24.1354 224.391 23.3125C225.172 22.4792 226.078 21.8229 227.109 21.3438C228.151 20.8646 229.26 20.625 230.438 20.625C231.135 20.625 231.818 20.7135 232.484 20.8906C233.161 21.0677 233.802 21.3281 234.406 21.6719C235.021 22.0052 235.583 22.4167 236.094 22.9062C236.615 23.3958 237.062 23.9583 237.438 24.5938Z" fill="#019DE6"/>
<path d="M255.484 38H254.453L252.797 35.7031C252.391 36.0677 251.958 36.4115 251.5 36.7344C251.052 37.0469 250.578 37.3229 250.078 37.5625C249.578 37.7917 249.062 37.974 248.531 38.1094C248.01 38.2448 247.479 38.3125 246.938 38.3125C245.76 38.3125 244.651 38.1146 243.609 37.7188C242.578 37.3229 241.672 36.75 240.891 36C240.12 35.2396 239.51 34.3125 239.062 33.2188C238.615 32.125 238.391 30.8802 238.391 29.4844C238.391 28.1823 238.615 26.9896 239.062 25.9062C239.51 24.8125 240.12 23.875 240.891 23.0938C241.672 22.3125 242.578 21.7083 243.609 21.2812C244.651 20.8438 245.76 20.625 246.938 20.625C247.479 20.625 248.016 20.6927 248.547 20.8281C249.078 20.9635 249.594 21.151 250.094 21.3906C250.594 21.6302 251.068 21.9115 251.516 22.2344C251.974 22.5573 252.401 22.9062 252.797 23.2812L254.453 21.2969H255.484V38ZM251.188 29.4844C251.188 28.901 251.073 28.3385 250.844 27.7969C250.625 27.2448 250.323 26.7604 249.938 26.3438C249.552 25.9167 249.099 25.5781 248.578 25.3281C248.068 25.0677 247.521 24.9375 246.938 24.9375C246.354 24.9375 245.802 25.0365 245.281 25.2344C244.771 25.4323 244.323 25.724 243.938 26.1094C243.562 26.4948 243.266 26.974 243.047 27.5469C242.828 28.1094 242.719 28.7552 242.719 29.4844C242.719 30.2135 242.828 30.8646 243.047 31.4375C243.266 32 243.562 32.474 243.938 32.8594C244.323 33.2448 244.771 33.5365 245.281 33.7344C245.802 33.9323 246.354 34.0312 246.938 34.0312C247.521 34.0312 248.068 33.9062 248.578 33.6562C249.099 33.3958 249.552 33.0573 249.938 32.6406C250.323 32.2135 250.625 31.7292 250.844 31.1875C251.073 30.6354 251.188 30.0677 251.188 29.4844Z" fill="#019DE6"/>
<path d="M190.531 90.0938V81.125C190.531 79.8958 190.292 78.7396 189.812 77.6562C189.354 76.5521 188.719 75.5938 187.906 74.7812C187.094 73.9688 186.135 73.3333 185.031 72.875C183.948 72.3958 182.792 72.1562 181.562 72.1562C180.333 72.1562 179.167 72.3958 178.062 72.875C176.979 73.3333 176.031 73.9688 175.219 74.7812C174.406 75.5938 173.76 76.5521 173.281 77.6562C172.823 78.7396 172.594 79.8958 172.594 81.125V90.0938H190.531ZM199.5 108H190.531V99.0312H172.594V108H163.656V81.125C163.656 78.6458 164.125 76.3229 165.062 74.1562C166 71.9688 167.271 70.0625 168.875 68.4375C170.5 66.8125 172.396 65.5312 174.562 64.5938C176.75 63.6562 179.083 63.1875 181.562 63.1875C184.042 63.1875 186.365 63.6562 188.531 64.5938C190.719 65.5312 192.625 66.8125 194.25 68.4375C195.875 70.0625 197.156 71.9688 198.094 74.1562C199.031 76.3229 199.5 78.6458 199.5 81.125V108Z" fill="#0DBBA2"/>
<path d="M243.062 103.406C240.979 105.198 238.646 106.573 236.062 107.531C233.479 108.49 230.802 108.969 228.031 108.969C225.906 108.969 223.854 108.688 221.875 108.125C219.917 107.583 218.073 106.812 216.344 105.812C214.635 104.792 213.073 103.573 211.656 102.156C210.24 100.74 209.021 99.1771 208 97.4688C207 95.7396 206.219 93.8958 205.656 91.9375C205.115 89.9583 204.844 87.9062 204.844 85.7812C204.844 83.6562 205.115 81.6042 205.656 79.625C206.219 77.6458 207 75.8021 208 74.0938C209.021 72.3646 210.24 70.7917 211.656 69.375C213.073 67.9583 214.635 66.75 216.344 65.75C218.073 64.7292 219.917 63.9479 221.875 63.4062C223.854 62.8438 225.906 62.5625 228.031 62.5625C230.802 62.5625 233.479 63.0417 236.062 64C238.646 64.9375 240.979 66.3125 243.062 68.125L238.312 75.9375C237 74.5208 235.448 73.4375 233.656 72.6875C231.865 71.9167 229.99 71.5312 228.031 71.5312C226.052 71.5312 224.198 71.9062 222.469 72.6562C220.74 73.4062 219.229 74.4271 217.938 75.7188C216.646 76.9896 215.625 78.5 214.875 80.25C214.125 81.9792 213.75 83.8229 213.75 85.7812C213.75 87.7396 214.125 89.5833 214.875 91.3125C215.625 93.0208 216.646 94.5208 217.938 95.8125C219.229 97.1042 220.74 98.125 222.469 98.875C224.198 99.625 226.052 100 228.031 100C229.99 100 231.865 99.625 233.656 98.875C235.448 98.1042 237 97.0104 238.312 95.5938L243.062 103.406Z" fill="#0DBBA2"/>
<path d="M292.75 108H283.812V76C283.812 75.375 283.688 74.7917 283.438 74.25C283.208 73.7083 282.885 73.2396 282.469 72.8438C282.073 72.4271 281.604 72.1042 281.062 71.875C280.521 71.6458 279.938 71.5312 279.312 71.5312C278.688 71.5312 278.104 71.6458 277.562 71.875C277.021 72.1042 276.542 72.4271 276.125 72.8438C275.729 73.2396 275.417 73.7083 275.188 74.25C274.958 74.7917 274.844 75.375 274.844 76V108H265.875V76C265.875 75.375 265.76 74.7917 265.531 74.25C265.302 73.7083 264.979 73.2396 264.562 72.8438C264.167 72.4271 263.698 72.1042 263.156 71.875C262.615 71.6458 262.031 71.5312 261.406 71.5312C260.781 71.5312 260.198 71.6458 259.656 71.875C259.115 72.1042 258.635 72.4271 258.219 72.8438C257.823 73.2396 257.51 73.7083 257.281 74.25C257.052 74.7917 256.938 75.375 256.938 76V108H247.969V76C247.969 74.1458 248.312 72.4062 249 70.7812C249.708 69.1354 250.667 67.7083 251.875 66.5C253.104 65.2708 254.531 64.3125 256.156 63.625C257.802 62.9167 259.552 62.5625 261.406 62.5625C263.073 62.5625 264.677 62.8646 266.219 63.4688C267.76 64.0521 269.146 64.9062 270.375 66.0312C271.604 64.9062 272.979 64.0521 274.5 63.4688C276.042 62.8646 277.646 62.5625 279.312 62.5625C281.167 62.5625 282.906 62.9167 284.531 63.625C286.177 64.3125 287.604 65.2708 288.812 66.5C290.042 67.7083 291 69.1354 291.688 70.7812C292.396 72.4062 292.75 74.1458 292.75 76V108Z" fill="#0DBBA2"/>
<path d="M331.5 108H300.781V63.1875H331.5V72.1562H309.75V81.125H324.469V90.0938H309.75V99.0312H331.5V108Z" fill="#0DBBA2"/>
<defs>
<linearGradient id="paint0_linear_1_40" x1="255.246" y1="6.3778e-08" x2="244.772" y2="133.438" gradientUnits="userSpaceOnUse">
<stop stop-color="#019DE6"/>
<stop offset="1" stop-color="#0EBCA1"/>
</linearGradient>
<linearGradient id="paint1_linear_1_40" x1="191.917" y1="61.5267" x2="196.806" y2="-10.3017" gradientUnits="userSpaceOnUse">
<stop stop-color="#0EA089"/>
<stop offset="1" stop-color="#8FD7CB"/>
</linearGradient>
</defs>
</svg>
